<svg xmlns="http://www.w3.org/2000/svg" viewBox="0 0 64 64" fill="none" stroke-linecap="round" stroke-linejoin="round">
  <g stroke="#6EE7D1" stroke-width="1.8">
    <path d="M6 20a4 4 0 0 1 4-4h44a4 4 0 0 1 4 4v6a4 4 0 0 0 0 8v6a4 4 0 0 1-4 4H10a4 4 0 0 1-4-4v-6a4 4 0 0 0 0-8Z"/>
    <path d="M40 15v34" stroke-dasharray="3 4"/>
  </g>
  <g stroke="#87A9FF" stroke-width="1.6">
    <rect x="16" y="24" width="6" height="6" rx="1"/>
    <rect x="26" y="24" width="6" height="6" rx="1"/>
    <rect x="16" y="34" width="6" height="6" rx="1" fill="#87A9FF" fill-opacity=".35"/>
    <rect x="26" y="34" width="6" height="6" rx="1"/>
  </g>
</svg>
