<svg xmlns="http://www.w3.org/2000/svg" viewBox="0 0 64 64" fill="none" stroke-linecap="round" stroke-linejoin="round">
  <g stroke="#6EE7D1" stroke-width="1.8">
    <rect x="10" y="6" width="44" height="54" rx="4"/>
    <path d="M24 6h16v6a2 2 0 0 1-2 2H26a2 2 0 0 1-2-2Z"/>
  </g>
  <g stroke="#87A9FF" stroke-width="1.6">
    <rect x="18" y="24" width="6" height="6" rx="1"/>
    <path d="M19.5 27 21 28.5 23 25.5"/>
    <path d="M28 27h20"/>
    <rect x="18" y="36" width="6" height="6" rx="1"/>
    <path d="M28 39h20"/>
    <rect x="18" y="48" width="6" height="6" rx="1"/>
    <path d="M19.5 51 21 52.5 23 49.5"/>
    <path d="M28 51h20"/>
    <circle cx="45" cy="15" r="5"/>
    <path d="M45 12v3l2.2 1.3"/>
  </g>
</svg>
